# xmcd CD database file
#
# Track frame offsets:
#	150
#	68268
#	106684
#	128588
#	164520
#	201311
#	224512
#
# Disc length: 3562 seconds
#
# Revision: 0
# Processed by: cddbd v1.5.1PL0 Copyright (c) Steve Scherf et al.
# Submitted via: CDex 1.51
#
DISCID=5c0de807
DTITLE=Schönhaus Eypress - No Way Out
DYEAR=2004
DGENRE=Jazz
TTITLE0=No Way Out
TTITLE1=Bathsheba's Dance
TTITLE2=Shevet
TTITLE3=Naftule's Doina
TTITLE4=Zwiegespraech
TTITLE5=Ofek
TTITLE6=Goin' Home
EXTD=YEAR: 2004
EXTT0=
EXTT1=
EXTT2=
EXTT3=
EXTT4=
EXTT5=
EXTT6=
PLAYORDER=
